<svg width="117" height="120" viewBox="0 0 117 120" fill="none" xmlns="http://www.w3.org/2000/svg">
<path d="M117 60C117 51.6797 112.61 44.0039 105.697 39.9609C107.782 32.0789 105.603 23.4656 99.86 17.5781C94.1192 11.6906 85.7572 9.49219 78.0716 11.6297C74.15 4.54219 66.6084 0 58.4954 0C50.3825 0 42.9552 4.54219 39.0015 11.632C31.3228 9.49219 22.6842 11.6906 17.1309 17.5781C11.5775 23.4656 9.29217 32.0859 11.3787 39.9609C4.46554 44.0156 0 51.6797 0 60C0 68.3203 4.46554 75.9961 11.3787 80.0391C9.29217 87.9141 11.397 96.5391 17.1309 102.422C23.187 108.633 31.6519 110.421 38.9924 108.37C42.978 115.453 50.3825 120 58.4954 120C66.6084 120 74.102 115.458 78.0716 108.368C85.5561 110.448 93.8884 108.544 99.86 102.42C105.601 96.532 107.781 87.9164 105.697 80.0367C112.612 76.0078 117 68.3203 117 60ZM96.2263 76.0078C97.4547 78.7922 102.968 88.6945 94.7408 97.132C88.1408 103.901 81.6002 102.143 74.1431 98.6555C73.1216 101.484 70.1963 112.5 58.5411 112.5C46.6277 112.5 43.7436 100.898 42.9437 98.6414C35.4867 102.129 28.9163 103.856 22.346 97.118C13.9177 88.5328 19.8596 78.2508 20.8605 75.9937C18.0907 74.9531 7.34964 71.9531 7.34964 60C7.34964 47.782 18.662 44.8242 20.8628 44.0039C19.6345 41.2195 14.1211 31.3172 22.3483 22.8797C30.7469 14.2359 40.8024 20.3602 42.946 21.3563C43.9836 18.5156 46.8859 7.5 58.5411 7.5C70.4546 7.5 73.3387 19.1016 74.1385 21.3586C76.8535 20.0988 86.5091 14.4445 94.7363 22.882C103.165 31.4672 97.2227 41.7492 96.2217 44.0062C98.9916 45.0703 109.733 48.0469 109.733 60C109.733 72.2109 98.4202 75.1875 96.2263 76.0078ZM74.2414 44.8594L52.4393 67.1953L42.8409 57.3516C41.4126 55.8867 39.0975 55.8867 37.6715 57.3516C36.2454 58.8164 36.2431 61.1906 37.6715 62.6531L49.8614 75.1523C50.5756 75.8848 51.5112 76.2511 52.4461 76.2511C53.3811 76.2511 54.3174 75.885 55.0309 75.1523L79.4154 50.1445C80.8437 48.6797 80.8437 46.3055 79.4154 44.843C77.987 43.3805 75.6583 43.3828 74.2414 44.8594Z" fill="black"/>
</svg>