<svg width="131" height="105" viewBox="0 0 131 105" fill="none" xmlns="http://www.w3.org/2000/svg">
<path d="M24.3783 6.91934L11.2783 0.541414C9.6664 -0.0943284 7.69628 0.361971 6.90209 2.0026C6.08334 3.61759 6.72299 5.59146 8.36049 6.38512L21.4605 12.763C21.9221 12.9938 22.4133 13.123 22.925 13.123C24.4346 13.123 25.7661 12.0719 26.1223 10.5861C26.4661 9.12393 25.7497 7.58585 24.3783 6.91934ZM22.925 58.8779C22.4133 58.8779 21.9272 59.0061 21.4666 59.2368L8.36663 65.6148C6.72913 66.4094 6.09051 68.3833 6.88265 69.9973C7.7014 71.4533 9.67049 72.2777 11.2834 71.4841L24.3834 65.1062C25.7395 64.414 26.4549 62.877 26.1233 61.5993C25.7702 60.1084 24.4397 58.8779 22.925 58.8779ZM108.075 13.123C108.587 13.123 109.073 12.9948 109.533 12.7641L122.633 6.38614C124.271 5.59146 124.91 3.61759 124.092 2.00362C123.299 0.547566 121.329 -0.276848 119.716 0.542439L106.616 6.92037C105.26 7.58687 104.544 9.12496 104.876 10.5851C105.23 12.0709 106.56 13.123 108.075 13.123ZM19.65 35.9092C19.65 34.2686 18.1927 32.6279 16.375 32.6279H3.27503C1.45843 32.6279 3.05176e-05 34.0891 3.05176e-05 35.7246C3.05176e-05 37.3601 1.45843 39.1904 3.27503 39.1904H16.375C18.1927 39.1904 19.65 37.919 19.65 35.9092ZM127.725 32.6279H114.625C112.808 32.6279 111.35 34.0891 111.35 35.7246C111.35 37.3601 112.808 38.8213 114.625 38.8213H127.725C129.542 38.8213 131 37.3601 131 35.7246C131 34.0891 129.547 32.6279 127.725 32.6279ZM122.628 65.9736L109.528 59.5957C107.916 58.96 105.946 59.4419 105.128 61.0569C104.334 62.6719 104.974 64.6458 106.612 65.4661L119.712 71.844C121.323 72.6387 123.294 71.9978 124.112 70.3572C124.921 68.7422 124.266 66.7734 122.628 65.9736ZM65.3977 0.00316573C45.5839 0.0608542 29.475 16.3837 29.475 36.3809C29.475 45.1808 32.6415 53.6772 38.3892 60.293C41.1177 63.4327 45.7252 70.4628 47.3402 75.883C47.5608 77.6645 49.1504 78.8813 50.9508 78.6946C52.7322 78.496 54.0171 76.8561 53.839 75.075L53.7142 74.3958C51.6039 67.2242 46.3455 59.4579 43.3305 55.9859C38.6246 50.5518 36.025 43.5996 36.025 36.3809C36.025 19.7203 48.9306 6.62403 65.3977 6.58301H65.5C73.3048 6.58301 80.6571 9.63253 86.2144 15.184C91.8638 20.8154 94.975 28.3418 94.975 36.3809C94.975 43.5976 92.3816 50.562 87.6738 55.9904C84.6547 59.4645 79.3963 67.2287 77.2859 74.4003L77.158 75.0861C76.9437 76.8805 78.1688 78.6934 79.9561 78.9169C80.116 78.9362 80.2695 78.949 80.423 78.949C82.0189 78.949 83.3623 77.8988 83.567 76.2583C85.2749 70.4649 89.8836 63.4348 92.6142 60.2951C98.3524 53.669 101.525 45.1787 101.525 36.3809C101.525 26.5966 97.7281 17.4132 90.8363 10.5205C84.0243 3.70782 74.8338 -0.240344 65.3977 0.00316573ZM78.4158 85.1279H52.4C50.5894 85.1279 49.123 86.6004 49.125 88.4153L49.1403 92.9968C49.1423 94.2826 49.5259 95.5521 50.2372 96.6226L53.7353 101.891C54.8048 103.502 57.2601 104.82 59.1903 104.82H71.8236C73.7513 104.82 76.2059 103.501 77.2744 101.893L80.7725 96.6246C81.3769 95.7139 81.8678 94.0899 81.8694 92.9988L81.8642 88.4174C81.6908 86.7891 80.4013 85.1279 78.4158 85.1279ZM75.3046 93.1875L72.007 98.2017C71.9095 98.2914 71.6619 98.4244 71.8295 98.4307L59.4889 98.4548C59.4022 98.4339 59.256 98.3979 59.1977 98.3979C59.1689 98.3979 59.1701 98.3514 59.1977 98.3979L55.6975 93.1725L55.6955 91.8668H75.3332L75.334 92.9291C75.3046 93.0234 75.2636 93.1875 75.3046 93.1875ZM68.775 16.4104C68.775 14.5975 67.3103 13.1291 65.5 13.1291C52.8606 13.1291 42.575 23.4322 42.575 35.9133C42.575 37.727 44.0398 39.1945 45.85 39.1945C47.6603 39.1945 49.125 37.7264 49.125 35.9133C49.125 26.8693 56.4692 19.6916 65.5 19.6916C67.3013 19.6896 68.775 18.2232 68.775 16.4104Z" fill="black"/>
</svg>
