<svg width="43" height="31" viewBox="0 0 43 31" fill="none" xmlns="http://www.w3.org/2000/svg">
<path d="M4.992 23.944C4.21333 23.944 3.49333 23.7467 2.832 23.352C2.18133 22.968 1.65867 22.4453 1.264 21.784C0.88 21.1227 0.688 20.408 0.688 19.64C0.688 19 0.826667 18.3867 1.104 17.8C1.392 17.2027 1.792 16.696 2.304 16.28L5.904 13.64L4.768 13.08C4.62933 13.016 4.512 12.984 4.416 12.984C4.26667 12.984 4.07467 13.0693 3.84 13.24L2.528 14.632L0.48 12.84L1.808 11.24C2.14933 10.824 2.544 10.5253 2.992 10.344C3.45067 10.1627 3.91467 10.072 4.384 10.072C4.91733 10.072 5.424 10.2 5.904 10.456L9.328 12.056C9.41333 12.0773 9.488 12.088 9.552 12.088H11.2V14.968H9.008L4.304 18.408C4.12267 18.568 3.98933 18.744 3.904 18.936C3.82933 19.1173 3.792 19.336 3.792 19.592C3.792 19.976 3.93067 20.3067 4.208 20.584C4.48533 20.8613 4.816 21 5.2 21H9.824V23.944H4.992ZM6.64 17.384H9.12V19.864H6.64V17.384ZM15.2276 19C14.6303 19 14.0863 18.856 13.5956 18.568C13.105 18.2693 12.7156 17.8747 12.4276 17.384C12.1396 16.8827 11.9956 16.3387 11.9956 15.752V8.072H14.9396V15.56C14.9396 15.6667 14.9663 15.752 15.0196 15.816C15.0836 15.8693 15.1636 15.896 15.2596 15.896H16.2356C16.3423 15.896 16.3956 15.9493 16.3956 16.056V18.84C16.3956 18.9467 16.3423 19 16.2356 19H15.2276ZM16.2344 19C16.1277 19 16.0744 18.9467 16.0744 18.84V16.056C16.0744 15.9493 16.1277 15.896 16.2344 15.896H16.8744C16.981 15.896 17.061 15.864 17.1144 15.8C17.1784 15.736 17.2104 15.6507 17.2104 15.544V12.504H20.1544V15.544C20.1544 15.6507 20.181 15.736 20.2344 15.8C20.2984 15.864 20.3837 15.896 20.4904 15.896H21.1304C21.237 15.896 21.2904 15.9493 21.2904 16.056V18.84C21.2904 18.9467 21.237 19 21.1304 19H20.4904C20.1064 19 19.7704 18.9573 19.4824 18.872C19.205 18.7867 18.9384 18.648 18.6824 18.456C18.4264 18.648 18.1544 18.7867 17.8664 18.872C17.589 18.9573 17.2584 19 16.8744 19H16.2344ZM17.5304 20.264H20.0104V22.744H17.5304V20.264ZM26.485 15.752C26.485 16.3387 26.341 16.8827 26.053 17.384C25.765 17.8747 25.3757 18.2693 24.885 18.568C24.3943 18.856 23.8503 19 23.253 19H21.125C21.0183 19 20.965 18.9467 20.965 18.84V16.056C20.965 15.9493 21.0183 15.896 21.125 15.896H23.221C23.3063 15.896 23.381 15.864 23.445 15.8C23.509 15.736 23.541 15.656 23.541 15.56V12.056H26.485V15.752ZM26.517 20.28V22.76H21.557V20.28H26.517ZM31.6575 15.896C31.9348 15.896 32.0735 15.784 32.0735 15.56C32.0735 15.4747 32.0415 15.4053 31.9775 15.352C31.9135 15.288 31.7642 15.176 31.5295 15.016L27.9295 12.536L29.6095 10.104L33.6895 12.936C34.1268 13.2773 34.4575 13.64 34.6815 14.024C34.9055 14.408 35.0175 14.888 35.0175 15.464C35.0175 16.136 34.8522 16.744 34.5215 17.288C34.2015 17.8213 33.7642 18.2427 33.2095 18.552C32.6548 18.8507 32.0522 19 31.4015 19H27.4175V15.896H31.6575Z" fill="#00264D"/>
<path d="M5.77339 26.4777C6.03739 26.4777 6.28139 26.543 6.50539 26.6737C6.72939 26.8044 6.90672 26.9817 7.03739 27.2057C7.16806 27.4297 7.23339 27.6737 7.23339 27.9377C7.23339 28.2017 7.16806 28.4457 7.03739 28.6697C6.90672 28.8937 6.72939 29.071 6.50539 29.2017C6.28139 29.3324 6.03739 29.3977 5.77339 29.3977H4.74539V26.4777H5.77339ZM5.69339 28.7017C5.83472 28.7017 5.96272 28.6684 6.07739 28.6017C6.19472 28.5324 6.28672 28.439 6.35339 28.3217C6.42272 28.2044 6.45739 28.0764 6.45739 27.9377C6.45739 27.799 6.42272 27.671 6.35339 27.5537C6.28672 27.4364 6.19472 27.3444 6.07739 27.2777C5.96272 27.2084 5.83472 27.1737 5.69339 27.1737H5.52139V28.7017H5.69339ZM12.136 29.3977V26.4777H12.912V29.3977H12.136ZM19.1192 26.4777C19.2792 26.4777 19.4272 26.5177 19.5632 26.5977C19.7019 26.675 19.8112 26.7817 19.8912 26.9177C19.9712 27.0537 20.0112 27.203 20.0112 27.3657C20.0112 27.5737 19.9392 27.739 19.7952 27.8617C20.0139 27.9897 20.1232 28.1884 20.1232 28.4577C20.1232 28.6284 20.0806 28.7857 19.9952 28.9297C19.9126 29.0737 19.7992 29.1884 19.6552 29.2737C19.5112 29.3564 19.3539 29.3977 19.1832 29.3977H17.8832V26.4777H19.1192ZM19.0552 27.5457C19.1059 27.5457 19.1486 27.5284 19.1832 27.4937C19.2179 27.459 19.2352 27.4164 19.2352 27.3657C19.2352 27.315 19.2179 27.2737 19.1832 27.2417C19.1486 27.207 19.1059 27.1897 19.0552 27.1897H18.6592V27.5457H19.0552ZM19.1432 28.6617C19.2019 28.6617 19.2499 28.643 19.2872 28.6057C19.3272 28.5657 19.3472 28.5164 19.3472 28.4577C19.3472 28.407 19.3272 28.3617 19.2872 28.3217C19.2472 28.279 19.1992 28.2577 19.1432 28.2577H18.6592V28.6617H19.1432ZM26.9912 29.3977L26.8472 28.9857H25.8352L25.6912 29.3977H24.8752L25.8912 26.4777H26.7912L27.8072 29.3977H26.9912ZM26.0832 28.2737H26.5992L26.3432 27.5297L26.0832 28.2737ZM32.4049 29.5777C32.4609 29.5777 32.5049 29.5617 32.5369 29.5297C32.5689 29.4977 32.5849 29.4564 32.5849 29.4057V26.4777H33.3609V29.3777C33.3609 29.543 33.3209 29.695 33.2409 29.8337C33.1635 29.975 33.0569 30.0857 32.9209 30.1657C32.7875 30.2484 32.6422 30.2897 32.4849 30.2897H32.1209V29.5777H32.4049Z" fill="#00264D"/>
</svg>
